<svg id="footer_fist" xmlns="http://www.w3.org/2000/svg" preserveAspectRatio="xMidYMid meet" viewBox="0 0 400 300" height="100%" style="max-height:20vh;">
  <circle cx="200" cy="150" r="150"/>
  <path fill="#f8f801" d="M200 15a135 135 0 0 0-85.6 32c-3.8 9-7.6 17.3-11.6 25a119 119 0 0 0-8.3 18.3c-1.2 6.4 1 17.2 4.7 23.3 4.4 7.3 8 10.7 14 13.3 4.8 2.1 4.9 2.2 2 2.6-.3 5-.8 8.9 1.3 14 3 7.2 11 11.6 24.1 13.4 6.4.8 20.1-1 25.4-3.4a19.6 19.6 0 0 0 11.9-22.2c-.9-5.5-1.8-7.3-8.2-16.2-7.8-10.8-8.6-12.9-7.3-19.8 1.2-6.2.8-7.3-2-7-2 .4-3.2 2-5.9 8-4 8.8-9.5 16.6-14.2 20.1a40.1 40.1 0 0 1-3.8 2.5c-.2 0 2.6-4 6.2-9 7.2-10.1 11-20.7 14.5-40.3l2-11-5.3-4.3c-5.9-4.8-6.6-5.7-3.4-4.6 2.9 1 8.7 0 10-1.7 1.3-2 .7-4.6-2.3-9l-2.7-3.8 2.6 1.7c9.7 6.4 17.1 5.8 23.2-2l2.2-2.8.9 4.2c1.6 8.4 6 12.5 26.8 25.4 4.9 3 9 3.4 12.6 1.2 1.7-1 2.7-2.1 2.8-3.9.1-3-2.3-7.6-7.8-16.8a138 138 0 0 1-8-15.8 61 61 0 0 0-5.9-11.2 135 135 0 0 0-4.9-.2zm24 5a6 6 0 0 0-2.3 0c-5 .7-8.3 3.2-7.9 5.8.2 1.1 2.5 6.1 5.2 11 4.2 8 5.1 9.1 7.3 9 4.7-.3 10-6.1 10.1-11.2 0-1 0-2-.3-3-1.3-5.7-6.7-11-12.1-11.7zm57.9 22.7-30.3 65.4 36-60.6a135 135 0 0 0-5.7-4.8zM234.5 47c-.8 0-1.7.2-2.9.4l-5.2.8 1.5 5c1.9 6.2 1 10.5-2.7 12.8-4.7 2.8-11 2.4-18.5-1.4-5.8-2.8-7.8-3.3-12.9-2.8-11.2 1-16.2 5.8-14.8 14.7.5 3.2 1.6 5.5 3.3 7.2 2.4 2.3 3 2.4 10 1.4 4.1-.6 15.4-2.6 25-4.5 14.6-2.8 18.2-3.9 21.7-6.2 5.5-3.6 7-5.8 7.6-10.9.1-1.3 0-2.7-.1-4-.7-4-2.9-7.7-6.2-10.3-2.3-1.7-3.5-2.3-5.8-2.2zm58.8 5.7-35 51.5 38.5-48a135 135 0 0 0-3.5-3.5zM310.8 73 248 121.8l68.2-40.2a135 135 0 0 0-5.5-8.5zm-76.3 7.5c-1.4 0-2.9 0-4.7.4a82 82 0 0 0-9.1 2c-6.4 1.5-15.7 3.5-20.6 4.3-10.2 1.6-12.1 2.9-14.3 9.5-2.8 8.5 0 12.4 9.9 13.4 7 .7 30.7-2 36-4 5.6-2.4 8.3-4.4 9.5-7a20.5 20.5 0 0 0 .1-13.9c-1.1-3.1-3-4.6-6.8-4.7zm87 10.6-29.6 14.2 31.5-9.8-2-4.4zm-12 16L273 118.5l38.1-6zm-79.2 3.1-20 3.2c-18.6 3-20 3.3-21.5 5.4-1.1 1.8-1.2 3.3-.2 7 1.7 6.1 8 10.6 16.2 11.6 19.6 2.3 32.3-5 31.7-18.1 0-1 0-1.9-.2-2.5-.3-2-1-3-3-4.4zm101.3 10.4-67.2 4.6 68.7 3.1c-.4-2.6-.9-5.2-1.5-7.7zm-73.9 8 76.6 8.1a135 135 0 0 0-.6-4.2zm2.6 4.8 71.8 38.3c.4-2.6.8-5.1 1-7.7zm-16 2.8a134.1 134.1 0 0 0-24.3 5.1c-7.7 2.3-17.7 5-22.3 6-15 3.3-16.3 5-18.3 23-.5 4.7-1.9 12.5-3.1 17.5-2.6 10.4-3.5 15.6-2.5 18.4.6 1.6 1.9 2.4 3.9 3 4 1 7.8-.6 11.6-4.9 16.2-18.5 19.1-23.7 18.2-32.2l-.4-4.2 3 2c8 5.7 15.4 4 22.7-4.9l2-2.4-1.4 4.5c-1.7 5-1.5 7.7.5 9.2 1.7 1.2 7.5.5 10-1.3 2.6-2 2.3-.9-2 5.4l-3.7 5.7 5 9.9c9 17.7 15.9 26.7 25.8 34.3 4.8 3.7 8.7 6.8 8.5 6.8-.2 0-2.1-.5-4.3-1.3-5.6-2-13.2-7.8-19.6-15-4.2-5-5.9-6.2-7.8-6-3 .5-3 1.7 0 7.3 3.3 6.3 3.1 8.5-1.1 21-3.6 10.5-4 12.4-3.1 18a20 20 0 0 0 7.5 13.3 135 135 0 0 0 61.3-48.6c.5-1.8.7-2.2 1.2-4.7 1.8-7 .7-17.9-2.4-23.7-1-2-7-8.7-13.2-15a382.8 382.8 0 0 1-32-37.5 21 21 0 0 0-19.8-8.7zm81 5.9 9.4 2.2v-1.8zm-259.8 4a135 135 0 0 0-.5 3.8l.6 4.6 65 10.7zm1.1 16.3.7 5.3 50.4-.4zm104 4.9-3.5.1c-6 .9-11 8.7-10.4 15.5 0 1 .3 1.9.6 2.8 1.6 4.8 8.3 8.9 13 7.8 2-.6 2.6-2 4.3-10.7 1-5.5 1.8-11 1.7-12.1-.3-2-2.6-3.2-5.8-3.4zm-24.2 4.2-67.9 34.8 1.3 3.2zm-9.2 1.1-64 20.8a135 135 0 0 0 2.3 5.7zm-17.4.2L82.2 175l1.5 7.1zm29 10.6L109 249a153 153 0 0 0 9 6.9zM136.2 194s-22.2 26.2-37.6 43.7a135 135 0 0 0 3.6 4.7l34-48.4zm34.6 1.8-5.2.7c-4.6.7-5.6 1.2-7.8 4.3a16.4 16.4 0 0 0-1.8 15.6c2 4.7 4.1 6.3 10.4 8.2 4 1.2 7.8 1 22.6-.5 9.8-1 21-2.4 25.2-3 7-1 7.5-1.4 9.1-4.3a11 11 0 0 0 1-7.8c-1.2-8.9-7.4-12.1-18.4-9.8-5 1.1-6.7 2.1-11.4 6.6-6.2 5.8-12 8-17.3 6.6-4.2-1-6.4-5-6.4-11.4zm-52.6 4-27.4 16.1 3.8 7zm95.5 25.1a293.2 293.2 0 0 1-27.3 2.5c-3.7.2-6.7.5-9.2.8-7.4 1-9.5 3.1-9.7 7.6a20.5 20.5 0 0 0 4.1 13.2c1.9 2.2 5.1 3.3 11.2 3.8 5.6.5 29-3.9 35.5-6.6 9.1-3.9 10.7-8.4 5.5-15.7-3-4.3-5-5.7-10-5.6zm9 26.6c-3 .1-8 .8-17.4 2.1l-20 2.9-2.3 3c-1.4 1.9-1.8 3-1.5 5 0 .6.2 1.4.5 2.4 3.3 12.7 17.6 16 35.7 8 7.5-3.3 12.2-9.4 12-15.8-.1-3.8-.6-5.2-2.2-6.6-1-.8-1.9-1.2-4.8-1z"/>
</svg>
